<?xml version="1.0" encoding="iso-8859-1"?><!-- Generator: Adobe Illustrator 21.1.0, SVG Export Plug-In . SVG Version: 6.00 Build 0)  --><svg xmlns="http://www.w3.org/2000/svg" xmlns:xlink="http://www.w3.org/1999/xlink" viewBox="0 0 30 30" width="30px" height="30px"><polygon points="7,15 7,11 13.345,4.244 15,5 15,15 "/><circle cx="14" cy="5" r="1"/><polygon points="7,15 7,19 13.345,25.756 15,25 15,15 "/><circle cx="14" cy="25" r="1"/><path d="M5,19H4c-1.105,0-2-0.895-2-2v-4c0-1.105,0.895-2,2-2h1V19z"/><g><path d="M17,16v0.003l1.128,1.772C19.224,17.329,20,16.255,20,15s-0.776-2.329-1.872-2.776L17,13.997V14c0.551,0,1,0.448,1,1S17.551,16,17,16z"/><path d="M28,15c0-4.086-2.244-7.652-5.561-9.548l-1.073,1.685C24.127,8.676,26,11.622,26,15s-1.873,6.324-4.633,7.863l1.073,1.685C25.756,22.652,28,19.086,28,15z"/><path d="M24,15c0-2.67-1.504-4.994-3.708-6.174l-1.088,1.709C20.853,11.353,22,13.038,22,15s-1.147,3.647-2.796,4.465l1.088,1.709C22.496,19.994,24,17.67,24,15z"/></g></svg>